<?xml version="1.0" encoding="utf-8"?>
<!-- Generator: Adobe Illustrator 18.1.0, SVG Export Plug-In . SVG Version: 6.00 Build 0)  -->
<!DOCTYPE svg PUBLIC "-//W3C//DTD SVG 1.1//EN" "http://www.w3.org/Graphics/SVG/1.1/DTD/svg11.dtd">
<svg version="1.1" id="レイヤー_1" xmlns="http://www.w3.org/2000/svg" xmlns:xlink="http://www.w3.org/1999/xlink" x="0px"
	 y="0px" viewBox="0 0 240 500" enable-background="new 0 0 240 500" xml:space="preserve">
<g>
	<g>
		<linearGradient id="SVGID_1_" gradientUnits="userSpaceOnUse" x1="161.6563" y1="1.0496" x2="199.8848" y2="1.0496">
			<stop  offset="0" style="stop-color:#E6E6E6"/>
			<stop  offset="3.067020e-002" style="stop-color:#FFFFFF"/>
			<stop  offset="6.135560e-002" style="stop-color:#EBEBEB"/>
			<stop  offset="0.227" style="stop-color:#FFFFFF"/>
			<stop  offset="0.9325" style="stop-color:#EBEBEB"/>
			<stop  offset="0.9693" style="stop-color:#FFFFFF"/>
			<stop  offset="1" style="stop-color:#CCCCCC"/>
		</linearGradient>
		<path fill="url(#SVGID_1_)" d="M162.9,0.1c-0.7,0-1.2,0.6-1.2,1.2V2h38.2V1.3c0-0.7-0.6-1.2-1.2-1.2L162.9,0.1z"/>
		<linearGradient id="SVGID_2_" gradientUnits="userSpaceOnUse" x1="161.8281" y1="0.3728" x2="199.7266" y2="0.3728">
			<stop  offset="0" style="stop-color:#EBEBEB"/>
			<stop  offset="5.522160e-002" style="stop-color:#B3B3B3"/>
			<stop  offset="8.589170e-002" style="stop-color:#B3B3B3"/>
			<stop  offset="0.3006" style="stop-color:#EBEBEB"/>
			<stop  offset="0.8712" style="stop-color:#EBEBEB"/>
			<stop  offset="0.9325" style="stop-color:#B3B3B3"/>
			<stop  offset="1" style="stop-color:#EBEBEB"/>
		</linearGradient>
		<path fill="url(#SVGID_2_)" d="M182.7,0.1l-20.1,0.1c-0.3,0.1-0.6,0.3-0.7,0.6h37.9c-0.2-0.4-0.6-0.6-1.1-0.6L182.7,0.1z"/>
	</g>
	<g>
		<g>
			<linearGradient id="SVGID_3_" gradientUnits="userSpaceOnUse" x1="2.4404" y1="135.0225" x2="2.4404" y2="118.2148">
				<stop  offset="0" style="stop-color:#FFFFFF"/>
				<stop  offset="0.2025" style="stop-color:#EBEBEB"/>
				<stop  offset="0.4601" style="stop-color:#FFFFFF"/>
				<stop  offset="0.7485" style="stop-color:#FFFFFF"/>
				<stop  offset="1" style="stop-color:#CCCCCC"/>
			</linearGradient>
			<path fill="url(#SVGID_3_)" d="M2.3,118.2c-0.7,0-1.2,0.6-1.2,1.2v0l0.1,14.7c0.2,0.5,0.6,0.9,1.2,0.9h1.5v-16.8H2.3z"/>
			<linearGradient id="SVGID_4_" gradientUnits="userSpaceOnUse" x1="1.4175" y1="134.8672" x2="1.4175" y2="118.3721">
				<stop  offset="0" style="stop-color:#EBEBEB"/>
				<stop  offset="5.522160e-002" style="stop-color:#B3B3B3"/>
				<stop  offset="8.589170e-002" style="stop-color:#B3B3B3"/>
				<stop  offset="0.3006" style="stop-color:#EBEBEB"/>
				<stop  offset="0.8712" style="stop-color:#EBEBEB"/>
				<stop  offset="0.9325" style="stop-color:#B3B3B3"/>
				<stop  offset="1" style="stop-color:#EBEBEB"/>
			</linearGradient>
			<path fill="url(#SVGID_4_)" d="M1.1,119.4L1.1,119.4l0.1,14.7c0.1,0.3,0.3,0.6,0.6,0.7v-16.5C1.4,118.6,1.1,119,1.1,119.4"/>
		</g>
		<g>
			<linearGradient id="SVGID_5_" gradientUnits="userSpaceOnUse" x1="2.4404" y1="176.4473" x2="2.4404" y2="159.6426">
				<stop  offset="0" style="stop-color:#FFFFFF"/>
				<stop  offset="0.2025" style="stop-color:#EBEBEB"/>
				<stop  offset="0.4601" style="stop-color:#FFFFFF"/>
				<stop  offset="0.7485" style="stop-color:#FFFFFF"/>
				<stop  offset="1" style="stop-color:#CCCCCC"/>
			</linearGradient>
			<path fill="url(#SVGID_5_)" d="M2.3,159.6c-0.7,0-1.2,0.6-1.2,1.2v0l0.1,14.7c0.2,0.5,0.6,0.9,1.2,0.9h1.5v-16.8H2.3z"/>
			<linearGradient id="SVGID_6_" gradientUnits="userSpaceOnUse" x1="1.4175" y1="176.2939" x2="1.4175" y2="159.8008">
				<stop  offset="0" style="stop-color:#EBEBEB"/>
				<stop  offset="5.522160e-002" style="stop-color:#B3B3B3"/>
				<stop  offset="8.589170e-002" style="stop-color:#B3B3B3"/>
				<stop  offset="0.3006" style="stop-color:#EBEBEB"/>
				<stop  offset="0.8712" style="stop-color:#EBEBEB"/>
				<stop  offset="0.9325" style="stop-color:#B3B3B3"/>
				<stop  offset="1" style="stop-color:#EBEBEB"/>
			</linearGradient>
			<path fill="url(#SVGID_6_)" d="M1.1,160.9L1.1,160.9l0.1,14.7c0.1,0.3,0.3,0.6,0.6,0.7v-16.5C1.4,160,1.1,160.4,1.1,160.9"/>
		</g>
		<g>
			<linearGradient id="SVGID_7_" gradientUnits="userSpaceOnUse" x1="2.4595" y1="71.1577" x2="2.4595" y2="93.2315">
				<stop  offset="0" style="stop-color:#E6E6E6"/>
				<stop  offset="3.067020e-002" style="stop-color:#FFFFFF"/>
				<stop  offset="6.135560e-002" style="stop-color:#EBEBEB"/>
				<stop  offset="0.227" style="stop-color:#FFFFFF"/>
				<stop  offset="0.9325" style="stop-color:#EBEBEB"/>
				<stop  offset="0.9693" style="stop-color:#FFFFFF"/>
				<stop  offset="1" style="stop-color:#CCCCCC"/>
			</linearGradient>
			<path fill="url(#SVGID_7_)" d="M2.4,71c-0.7,0-1.2,0.6-1.2,1.2l0,19.8c0,0.7,0.6,1.2,1.2,1.2h1.4V71H2.4z"/>
			<linearGradient id="SVGID_8_" gradientUnits="userSpaceOnUse" x1="1.4771" y1="93.0737" x2="1.4771" y2="71.1445">
				<stop  offset="0" style="stop-color:#EBEBEB"/>
				<stop  offset="5.522160e-002" style="stop-color:#B3B3B3"/>
				<stop  offset="8.589170e-002" style="stop-color:#B3B3B3"/>
				<stop  offset="0.3006" style="stop-color:#EBEBEB"/>
				<stop  offset="0.8712" style="stop-color:#EBEBEB"/>
				<stop  offset="0.9325" style="stop-color:#B3B3B3"/>
				<stop  offset="1" style="stop-color:#EBEBEB"/>
			</linearGradient>
			<path fill="url(#SVGID_8_)" d="M1.2,72.2L1.2,72.2l0,19.8c0,0.5,0.4,0.9,0.6,1V71.1C1.4,71.4,1.2,71.8,1.2,72.2"/>
		</g>
	</g>
</g>
<g>
	<path fill="#EBEBEB" d="M239.6,464.5c0,19.5-16,35.5-35.5,35.5l-164.8,0c-19.5,0-35.5-16-35.5-35.5v-427C3.8,18,19.8,2,39.3,2
		h164.8c19.5,0,35.5,16,35.5,35.5V464.5z"/>
	<path fill="#B3B3B3" d="M39.3,497.3c-18.1,0-32.8-14.7-32.8-32.8v-427c0-18.1,14.7-32.8,32.8-32.8h164.8
		c18.1,0,32.8,14.7,32.8,32.8v427c0,18.1-14.7,32.8-32.8,32.8L39.3,497.3z"/>
	<path fill="#CCCCCC" d="M39.3,496.5c-17.6,0-32-14.3-32-32v-427c0-17.6,14.3-32,32-32h164.8c17.6,0,32,14.3,32,32v427
		c0,17.6-14.3,32-32,32H39.3z"/>
	<path fill="#EBEBEB" d="M39.3,495c-16.8,0-30.4-13.7-30.4-30.4v-427c0-16.8,13.7-30.4,30.4-30.4h164.8c16.8,0,30.4,13.7,30.4,30.4
		v427c0,16.8-13.7,30.4-30.4,30.4L39.3,495z"/>
	<rect x="21.4" y="73.7" fill="#4D4D4D" width="200.2" height="356.4"/>
</g>
<g>
	<linearGradient id="SVGID_9_" gradientUnits="userSpaceOnUse" x1="121.5915" y1="442.8057" x2="121.5915" y2="484.6904">
		<stop  offset="0" style="stop-color:#FFFFFF"/>
		<stop  offset="1" style="stop-color:#EBEBEB"/>
	</linearGradient>
	<path fill="url(#SVGID_9_)" d="M99.3,464.3c0,12.3,10,22.3,22.3,22.3c12.3,0,22.3-10,22.3-22.3c0-12.3-10-22.3-22.3-22.3
		C109.3,442,99.3,452,99.3,464.3"/>
	<g>
		<path fill="#E6E6E6" d="M121.6,486c-12,0-21.8-9.8-21.8-21.8c0-12,9.8-21.8,21.8-21.8c12,0,21.8,9.8,21.8,21.8
			C143.4,476.3,133.6,486,121.6,486"/>
	</g>
	<linearGradient id="SVGID_10_" gradientUnits="userSpaceOnUse" x1="121.591" y1="484.0181" x2="121.591" y2="458.6715">
		<stop  offset="0" style="stop-color:#FFFFFF"/>
		<stop  offset="1" style="stop-color:#EBEBEB"/>
	</linearGradient>
	<path fill="url(#SVGID_10_)" d="M121.6,466.7c-7.7,0-15.1-0.6-21.8-1.8c0.3,11.7,10,21.2,21.8,21.2c11.8,0,21.5-9.5,21.8-21.2
		C136.6,466,129.3,466.7,121.6,466.7"/>
	<linearGradient id="SVGID_11_" gradientUnits="userSpaceOnUse" x1="121.4651" y1="472.6846" x2="121.4651" y2="456.6752">
		<stop  offset="0" style="stop-color:#999999"/>
		<stop  offset="1" style="stop-color:#B3B3B3"/>
	</linearGradient>
	<path fill="url(#SVGID_11_)" d="M114.2,469v-9.4c0-1.4,1.1-2.5,2.5-2.5h9.4c1.4,0,2.5,1.1,2.5,2.5v9.4c0,1.4-1.1,2.5-2.5,2.5h-9.4
		C115.4,471.6,114.2,470.4,114.2,469 M116.8,456c-2,0-3.6,1.6-3.6,3.6v9.4c0,2,1.6,3.6,3.6,3.6h9.4c2,0,3.6-1.6,3.6-3.6v-9.4
		c0-2-1.6-3.6-3.6-3.6H116.8z"/>
</g>
<g>
	<linearGradient id="SVGID_12_" gradientUnits="userSpaceOnUse" x1="118.1" y1="23.3326" x2="124.6357" y2="29.8684">
		<stop  offset="0" style="stop-color:#B3B3B3"/>
		<stop  offset="1" style="stop-color:#FFFFFF"/>
	</linearGradient>
	<path fill="url(#SVGID_12_)" d="M116.7,26.6c0,2.6,2.1,4.6,4.6,4.6c2.6,0,4.6-2.1,4.6-4.6c0-2.6-2.1-4.6-4.6-4.6
		C118.8,22,116.7,24,116.7,26.6"/>
	
		<radialGradient id="SVGID_13_" cx="147.7224" cy="21.4575" r="2.5344" gradientTransform="matrix(1.0669 0 0 1.0669 -36.8237 3.0733)" gradientUnits="userSpaceOnUse">
		<stop  offset="0" style="stop-color:#00599E"/>
		<stop  offset="0.8098" style="stop-color:#002674"/>
		<stop  offset="1" style="stop-color:#00599E"/>
	</radialGradient>
	<path fill="url(#SVGID_13_)" d="M119.2,26.6c0,1.2,1,2.2,2.2,2.2c1.2,0,2.2-1,2.2-2.2c0-1.2-1-2.2-2.2-2.2
		C120.2,24.4,119.2,25.4,119.2,26.6"/>
	<g>
		<path fill="#161922" d="M120.8,26.9c0-0.6,0.5-1,1-1c0.6,0,1,0.5,1,1c0,0.6-0.5,1-1,1C121.3,27.9,120.8,27.5,120.8,26.9"/>
		<path fill="#5E99D2" d="M120.1,27.3c0-0.3,0.3-0.6,0.6-0.6c0.3,0,0.6,0.2,0.6,0.6c0,0.3-0.3,0.6-0.6,0.6
			C120.3,27.9,120.1,27.6,120.1,27.3"/>
	</g>
</g>
<g>
	<g>
		<linearGradient id="SVGID_14_" gradientUnits="userSpaceOnUse" x1="206.7716" y1="-1.4338" x2="243.4873" y2="36.1065">
			<stop  offset="0" style="stop-color:#3C3C3C"/>
			<stop  offset="0" style="stop-color:#EBEBEB"/>
			<stop  offset="0.5092" style="stop-color:#EBEBEB"/>
			<stop  offset="0.5153" style="stop-color:#FFFFFF"/>
			<stop  offset="1" style="stop-color:#EBEBEB"/>
		</linearGradient>
		<path fill="url(#SVGID_14_)" d="M204.1,4.8c18.1,0,32.7,14.7,32.7,32.7h2.8C239.6,18,223.6,2,204.1,2L204.1,4.8z"/>
		
			<linearGradient id="SVGID_15_" gradientUnits="userSpaceOnUse" x1="1097.196" y1="-1113.8435" x2="1133.9126" y2="-1076.3022" gradientTransform="matrix(0 -1 1 0 1114.1982 1131.9902)">
			<stop  offset="0" style="stop-color:#3C3C3C"/>
			<stop  offset="0" style="stop-color:#EBEBEB"/>
			<stop  offset="0.5092" style="stop-color:#EBEBEB"/>
			<stop  offset="0.5153" style="stop-color:#FFFFFF"/>
			<stop  offset="1" style="stop-color:#EBEBEB"/>
		</linearGradient>
		<path fill="url(#SVGID_15_)" d="M6.6,37.5c0-18.1,14.7-32.7,32.7-32.7V2C19.8,2,3.8,18,3.8,37.5L6.6,37.5z"/>
	</g>
	<g>
		
			<linearGradient id="SVGID_16_" gradientUnits="userSpaceOnUse" x1="206.7718" y1="98.3488" x2="243.4872" y2="135.8888" gradientTransform="matrix(1 0 0 -1 0 601.793)">
			<stop  offset="0" style="stop-color:#3C3C3C"/>
			<stop  offset="0" style="stop-color:#EBEBEB"/>
			<stop  offset="0.5092" style="stop-color:#EBEBEB"/>
			<stop  offset="0.5153" style="stop-color:#FFFFFF"/>
			<stop  offset="1" style="stop-color:#EBEBEB"/>
		</linearGradient>
		<path fill="url(#SVGID_16_)" d="M204.1,497.2c18.1,0,32.7-14.7,32.7-32.7h2.8c0,19.5-15.9,35.5-35.5,35.5L204.1,497.2z"/>
		
			<linearGradient id="SVGID_17_" gradientUnits="userSpaceOnUse" x1="997.4129" y1="-1113.8435" x2="1034.1298" y2="-1076.3019" gradientTransform="matrix(0 1 1 0 1114.1982 -530.1973)">
			<stop  offset="0" style="stop-color:#3C3C3C"/>
			<stop  offset="0" style="stop-color:#EBEBEB"/>
			<stop  offset="0.5092" style="stop-color:#EBEBEB"/>
			<stop  offset="0.5153" style="stop-color:#FFFFFF"/>
			<stop  offset="1" style="stop-color:#EBEBEB"/>
		</linearGradient>
		<path fill="url(#SVGID_17_)" d="M6.6,464.5c0,18.1,14.7,32.7,32.7,32.7v2.8c-19.5,0-35.5-15.9-35.5-35.5L6.6,464.5z"/>
	</g>
</g>
<g>
	<g>
		<linearGradient id="SVGID_18_" gradientUnits="userSpaceOnUse" x1="118.2062" y1="34.5095" x2="127.8111" y2="64.1156">
			<stop  offset="0" style="stop-color:#B3B3B3"/>
			<stop  offset="1" style="stop-color:#FFFFFF"/>
		</linearGradient>
		<path fill="url(#SVGID_18_)" d="M104.3,40.4c-2.5,0-4.6,2.1-4.6,4.6v0.1c0,2.5,2.1,4.6,4.6,4.6H139c2.6,0,4.6-2.1,4.6-4.6v-0.1
			c0-2.5-2.1-4.6-4.6-4.6H104.3z"/>
		<g>
			<path fill="#F0F0F0" d="M139,47.1h-34.7c-0.1,0-0.3,0-0.4,0l-1.1,2.6c0.5,0.2,1,0.2,1.5,0.2H139c0.6,0,1.3-0.1,1.8-0.4l-1.1-2.6
				C139.6,47,139.3,47.1,139,47.1"/>
		</g>
		<linearGradient id="SVGID_19_" gradientUnits="userSpaceOnUse" x1="140.0898" y1="48.849" x2="142.7125" y2="45.4256">
			<stop  offset="0" style="stop-color:#EBEBEB"/>
			<stop  offset="0.4724" style="stop-color:#FFFFFF"/>
			<stop  offset="1" style="stop-color:#EBEBEB"/>
		</linearGradient>
		<path fill="url(#SVGID_19_)" d="M139.8,46.9l1.1,2.6c1.4-0.6,2.5-1.9,2.8-3.5l-2.7-0.8C140.9,46,140.4,46.6,139.8,46.9"/>
	</g>
	<g>
		<linearGradient id="SVGID_20_" gradientUnits="userSpaceOnUse" x1="121.6594" y1="43.6829" x2="121.6594" y2="46.1978">
			<stop  offset="0" style="stop-color:#232323"/>
			<stop  offset="0.227" style="stop-color:#0F0F0F"/>
			<stop  offset="1" style="stop-color:#3C3C3C"/>
		</linearGradient>
		<path fill="url(#SVGID_20_)" stroke="#333333" stroke-width="0.1363" stroke-miterlimit="10" d="M104.3,46.9c-1,0-1.9-0.8-1.9-1.9
			v-0.1c0-1,0.8-1.9,1.9-1.9H139c1,0,1.9,0.8,1.9,1.9V45c0,1-0.8,1.9-1.9,1.9H104.3z"/>
		<g>
			<path fill="none" d="M104.3,43.1c-1,0-1.9,0.8-1.9,1.9V45c0,1,0.8,1.9,1.9,1.9H139c1,0,1.9-0.8,1.9-1.9v-0.1c0-1-0.9-1.9-1.9-1.9
				H104.3z"/>
			<linearGradient id="SVGID_21_" gradientUnits="userSpaceOnUse" x1="103.3149" y1="40.9816" x2="103.3149" y2="46.2501">
				<stop  offset="0" style="stop-color:#4D4D4D"/>
				<stop  offset="0.227" style="stop-color:#0F0F0F"/>
				<stop  offset="1" style="stop-color:#808080"/>
			</linearGradient>
			<path fill="url(#SVGID_21_)" d="M102.5,45.6l1.2,1.2c0.2,0.1,0.3,0.1,0.5,0.1l-1.8-1.8C102.4,45.3,102.5,45.5,102.5,45.6"/>
			<linearGradient id="SVGID_22_" gradientUnits="userSpaceOnUse" x1="103.8457" y1="40.9821" x2="103.8457" y2="46.25">
				<stop  offset="0" style="stop-color:#4D4D4D"/>
				<stop  offset="0.227" style="stop-color:#0F0F0F"/>
				<stop  offset="1" style="stop-color:#808080"/>
			</linearGradient>
			<path fill="url(#SVGID_22_)" d="M102.5,44.5l2.4,2.4h0.4l-2.7-2.7C102.5,44.3,102.5,44.4,102.5,44.5"/>
			<linearGradient id="SVGID_23_" gradientUnits="userSpaceOnUse" x1="104.5142" y1="40.9823" x2="104.5142" y2="46.25">
				<stop  offset="0" style="stop-color:#4D4D4D"/>
				<stop  offset="0.227" style="stop-color:#0F0F0F"/>
				<stop  offset="1" style="stop-color:#808080"/>
			</linearGradient>
			<path fill="url(#SVGID_23_)" d="M102.8,43.8l3.1,3.1h0.4l-3.3-3.3C102.9,43.7,102.8,43.8,102.8,43.8"/>
			<linearGradient id="SVGID_24_" gradientUnits="userSpaceOnUse" x1="105.2896" y1="40.9822" x2="105.2896" y2="46.25">
				<stop  offset="0" style="stop-color:#4D4D4D"/>
				<stop  offset="0.227" style="stop-color:#0F0F0F"/>
				<stop  offset="1" style="stop-color:#808080"/>
			</linearGradient>
			<path fill="url(#SVGID_24_)" d="M103.3,43.3l3.6,3.6h0.4l-3.7-3.7C103.5,43.2,103.4,43.3,103.3,43.3"/>
			<linearGradient id="SVGID_25_" gradientUnits="userSpaceOnUse" x1="106.1768" y1="40.9821" x2="106.1768" y2="46.25">
				<stop  offset="0" style="stop-color:#4D4D4D"/>
				<stop  offset="0.227" style="stop-color:#0F0F0F"/>
				<stop  offset="1" style="stop-color:#808080"/>
			</linearGradient>
			<path fill="url(#SVGID_25_)" d="M104.3,43.1c-0.1,0-0.1,0-0.2,0l3.8,3.8h0.4l-3.8-3.8H104.3z"/>
			<linearGradient id="SVGID_26_" gradientUnits="userSpaceOnUse" x1="107.1919" y1="40.9821" x2="107.1919" y2="46.25">
				<stop  offset="0" style="stop-color:#4D4D4D"/>
				<stop  offset="0.227" style="stop-color:#0F0F0F"/>
				<stop  offset="1" style="stop-color:#808080"/>
			</linearGradient>
			<polygon fill="url(#SVGID_26_)" points="105.1,43.1 108.9,46.9 109.3,46.9 105.5,43.1 			"/>
			<linearGradient id="SVGID_27_" gradientUnits="userSpaceOnUse" x1="108.2143" y1="40.9821" x2="108.2143" y2="46.25">
				<stop  offset="0" style="stop-color:#4D4D4D"/>
				<stop  offset="0.227" style="stop-color:#0F0F0F"/>
				<stop  offset="1" style="stop-color:#808080"/>
			</linearGradient>
			<polygon fill="url(#SVGID_27_)" points="106.1,43.1 109.9,46.9 110.3,46.9 106.5,43.1 			"/>
			<linearGradient id="SVGID_28_" gradientUnits="userSpaceOnUse" x1="109.2368" y1="40.9821" x2="109.2368" y2="46.25">
				<stop  offset="0" style="stop-color:#4D4D4D"/>
				<stop  offset="0.227" style="stop-color:#0F0F0F"/>
				<stop  offset="1" style="stop-color:#808080"/>
			</linearGradient>
			<polygon fill="url(#SVGID_28_)" points="107.1,43.1 111,46.9 111.3,46.9 107.5,43.1 			"/>
			<linearGradient id="SVGID_29_" gradientUnits="userSpaceOnUse" x1="110.2583" y1="40.9821" x2="110.2583" y2="46.25">
				<stop  offset="0" style="stop-color:#4D4D4D"/>
				<stop  offset="0.227" style="stop-color:#0F0F0F"/>
				<stop  offset="1" style="stop-color:#808080"/>
			</linearGradient>
			<polygon fill="url(#SVGID_29_)" points="108.1,43.1 112,46.9 112.4,46.9 108.5,43.1 			"/>
			<linearGradient id="SVGID_30_" gradientUnits="userSpaceOnUse" x1="111.2798" y1="40.9821" x2="111.2798" y2="46.25">
				<stop  offset="0" style="stop-color:#4D4D4D"/>
				<stop  offset="0.227" style="stop-color:#0F0F0F"/>
				<stop  offset="1" style="stop-color:#808080"/>
			</linearGradient>
			<polygon fill="url(#SVGID_30_)" points="109.2,43.1 113,46.9 113.4,46.9 109.6,43.1 			"/>
			<linearGradient id="SVGID_31_" gradientUnits="userSpaceOnUse" x1="112.3018" y1="40.9821" x2="112.3018" y2="46.25">
				<stop  offset="0" style="stop-color:#4D4D4D"/>
				<stop  offset="0.227" style="stop-color:#0F0F0F"/>
				<stop  offset="1" style="stop-color:#808080"/>
			</linearGradient>
			<polygon fill="url(#SVGID_31_)" points="110.2,43.1 114,46.9 114.4,46.9 110.6,43.1 			"/>
			<linearGradient id="SVGID_32_" gradientUnits="userSpaceOnUse" x1="113.3247" y1="40.9821" x2="113.3247" y2="46.25">
				<stop  offset="0" style="stop-color:#4D4D4D"/>
				<stop  offset="0.227" style="stop-color:#0F0F0F"/>
				<stop  offset="1" style="stop-color:#808080"/>
			</linearGradient>
			<polygon fill="url(#SVGID_32_)" points="111.2,43.1 115.1,46.9 115.4,46.9 111.6,43.1 			"/>
			<linearGradient id="SVGID_33_" gradientUnits="userSpaceOnUse" x1="114.3467" y1="40.9821" x2="114.3467" y2="46.25">
				<stop  offset="0" style="stop-color:#4D4D4D"/>
				<stop  offset="0.227" style="stop-color:#0F0F0F"/>
				<stop  offset="1" style="stop-color:#808080"/>
			</linearGradient>
			<polygon fill="url(#SVGID_33_)" points="112.2,43.1 116.1,46.9 116.5,46.9 112.6,43.1 			"/>
			<linearGradient id="SVGID_34_" gradientUnits="userSpaceOnUse" x1="115.3686" y1="40.9821" x2="115.3686" y2="46.25">
				<stop  offset="0" style="stop-color:#4D4D4D"/>
				<stop  offset="0.227" style="stop-color:#0F0F0F"/>
				<stop  offset="1" style="stop-color:#808080"/>
			</linearGradient>
			<polygon fill="url(#SVGID_34_)" points="113.3,43.1 117.1,46.9 117.5,46.9 113.6,43.1 			"/>
			<linearGradient id="SVGID_35_" gradientUnits="userSpaceOnUse" x1="116.3911" y1="40.9821" x2="116.3911" y2="46.25">
				<stop  offset="0" style="stop-color:#4D4D4D"/>
				<stop  offset="0.227" style="stop-color:#0F0F0F"/>
				<stop  offset="1" style="stop-color:#808080"/>
			</linearGradient>
			<polygon fill="url(#SVGID_35_)" points="114.3,43.1 118.1,46.9 118.5,46.9 114.7,43.1 			"/>
			<linearGradient id="SVGID_36_" gradientUnits="userSpaceOnUse" x1="117.4136" y1="40.9821" x2="117.4136" y2="46.25">
				<stop  offset="0" style="stop-color:#4D4D4D"/>
				<stop  offset="0.227" style="stop-color:#0F0F0F"/>
				<stop  offset="1" style="stop-color:#808080"/>
			</linearGradient>
			<polygon fill="url(#SVGID_36_)" points="115.3,43.1 119.1,46.9 119.5,46.9 115.7,43.1 			"/>
			<linearGradient id="SVGID_37_" gradientUnits="userSpaceOnUse" x1="118.4341" y1="40.9821" x2="118.4341" y2="46.25">
				<stop  offset="0" style="stop-color:#4D4D4D"/>
				<stop  offset="0.227" style="stop-color:#0F0F0F"/>
				<stop  offset="1" style="stop-color:#808080"/>
			</linearGradient>
			<polygon fill="url(#SVGID_37_)" points="116.3,43.1 120.2,46.9 120.5,46.9 116.7,43.1 			"/>
			<linearGradient id="SVGID_38_" gradientUnits="userSpaceOnUse" x1="119.4568" y1="40.9821" x2="119.4568" y2="46.25">
				<stop  offset="0" style="stop-color:#4D4D4D"/>
				<stop  offset="0.227" style="stop-color:#0F0F0F"/>
				<stop  offset="1" style="stop-color:#808080"/>
			</linearGradient>
			<polygon fill="url(#SVGID_38_)" points="117.3,43.1 121.2,46.9 121.6,46.9 117.7,43.1 			"/>
			<linearGradient id="SVGID_39_" gradientUnits="userSpaceOnUse" x1="120.4802" y1="40.9821" x2="120.4802" y2="46.25">
				<stop  offset="0" style="stop-color:#4D4D4D"/>
				<stop  offset="0.227" style="stop-color:#0F0F0F"/>
				<stop  offset="1" style="stop-color:#808080"/>
			</linearGradient>
			<polygon fill="url(#SVGID_39_)" points="118.4,43.1 122.2,46.9 122.6,46.9 118.8,43.1 			"/>
			<linearGradient id="SVGID_40_" gradientUnits="userSpaceOnUse" x1="121.5012" y1="40.9821" x2="121.5012" y2="46.25">
				<stop  offset="0" style="stop-color:#4D4D4D"/>
				<stop  offset="0.227" style="stop-color:#0F0F0F"/>
				<stop  offset="1" style="stop-color:#808080"/>
			</linearGradient>
			<polygon fill="url(#SVGID_40_)" points="119.4,43.1 123.2,46.9 123.6,46.9 119.8,43.1 			"/>
			<linearGradient id="SVGID_41_" gradientUnits="userSpaceOnUse" x1="122.5241" y1="40.9821" x2="122.5241" y2="46.25">
				<stop  offset="0" style="stop-color:#4D4D4D"/>
				<stop  offset="0.227" style="stop-color:#0F0F0F"/>
				<stop  offset="1" style="stop-color:#808080"/>
			</linearGradient>
			<polygon fill="url(#SVGID_41_)" points="120.4,43.1 124.3,46.9 124.6,46.9 120.8,43.1 			"/>
			<linearGradient id="SVGID_42_" gradientUnits="userSpaceOnUse" x1="123.5459" y1="40.9821" x2="123.5459" y2="46.25">
				<stop  offset="0" style="stop-color:#4D4D4D"/>
				<stop  offset="0.227" style="stop-color:#0F0F0F"/>
				<stop  offset="1" style="stop-color:#808080"/>
			</linearGradient>
			<polygon fill="url(#SVGID_42_)" points="121.4,43.1 125.3,46.9 125.7,46.9 121.8,43.1 			"/>
			<linearGradient id="SVGID_43_" gradientUnits="userSpaceOnUse" x1="124.5674" y1="40.9821" x2="124.5674" y2="46.25">
				<stop  offset="0" style="stop-color:#4D4D4D"/>
				<stop  offset="0.227" style="stop-color:#0F0F0F"/>
				<stop  offset="1" style="stop-color:#808080"/>
			</linearGradient>
			<polygon fill="url(#SVGID_43_)" points="122.5,43.1 126.3,46.9 126.7,46.9 122.8,43.1 			"/>
			<linearGradient id="SVGID_44_" gradientUnits="userSpaceOnUse" x1="125.5898" y1="40.9821" x2="125.5898" y2="46.25">
				<stop  offset="0" style="stop-color:#4D4D4D"/>
				<stop  offset="0.227" style="stop-color:#0F0F0F"/>
				<stop  offset="1" style="stop-color:#808080"/>
			</linearGradient>
			<polygon fill="url(#SVGID_44_)" points="123.5,43.1 127.3,46.9 127.7,46.9 123.9,43.1 			"/>
			<linearGradient id="SVGID_45_" gradientUnits="userSpaceOnUse" x1="126.6123" y1="40.9821" x2="126.6123" y2="46.25">
				<stop  offset="0" style="stop-color:#4D4D4D"/>
				<stop  offset="0.227" style="stop-color:#0F0F0F"/>
				<stop  offset="1" style="stop-color:#808080"/>
			</linearGradient>
			<polygon fill="url(#SVGID_45_)" points="124.5,43.1 128.3,46.9 128.7,46.9 124.9,43.1 			"/>
			<linearGradient id="SVGID_46_" gradientUnits="userSpaceOnUse" x1="127.6328" y1="40.9821" x2="127.6328" y2="46.25">
				<stop  offset="0" style="stop-color:#4D4D4D"/>
				<stop  offset="0.227" style="stop-color:#0F0F0F"/>
				<stop  offset="1" style="stop-color:#808080"/>
			</linearGradient>
			<polygon fill="url(#SVGID_46_)" points="125.5,43.1 129.4,46.9 129.7,46.9 125.9,43.1 			"/>
			<linearGradient id="SVGID_47_" gradientUnits="userSpaceOnUse" x1="128.6563" y1="40.9821" x2="128.6563" y2="46.25">
				<stop  offset="0" style="stop-color:#4D4D4D"/>
				<stop  offset="0.227" style="stop-color:#0F0F0F"/>
				<stop  offset="1" style="stop-color:#808080"/>
			</linearGradient>
			<polygon fill="url(#SVGID_47_)" points="126.5,43.1 130.4,46.9 130.8,46.9 126.9,43.1 			"/>
			<linearGradient id="SVGID_48_" gradientUnits="userSpaceOnUse" x1="129.6777" y1="40.9821" x2="129.6777" y2="46.25">
				<stop  offset="0" style="stop-color:#4D4D4D"/>
				<stop  offset="0.227" style="stop-color:#0F0F0F"/>
				<stop  offset="1" style="stop-color:#808080"/>
			</linearGradient>
			<polygon fill="url(#SVGID_48_)" points="127.6,43.1 131.4,46.9 131.8,46.9 128,43.1 			"/>
			<linearGradient id="SVGID_49_" gradientUnits="userSpaceOnUse" x1="130.6992" y1="40.9821" x2="130.6992" y2="46.25">
				<stop  offset="0" style="stop-color:#4D4D4D"/>
				<stop  offset="0.227" style="stop-color:#0F0F0F"/>
				<stop  offset="1" style="stop-color:#808080"/>
			</linearGradient>
			<polygon fill="url(#SVGID_49_)" points="128.6,43.1 132.4,46.9 132.8,46.9 129,43.1 			"/>
			<linearGradient id="SVGID_50_" gradientUnits="userSpaceOnUse" x1="131.7217" y1="40.9821" x2="131.7217" y2="46.25">
				<stop  offset="0" style="stop-color:#4D4D4D"/>
				<stop  offset="0.227" style="stop-color:#0F0F0F"/>
				<stop  offset="1" style="stop-color:#808080"/>
			</linearGradient>
			<polygon fill="url(#SVGID_50_)" points="129.6,43.1 133.4,46.9 133.8,46.9 130,43.1 			"/>
			<linearGradient id="SVGID_51_" gradientUnits="userSpaceOnUse" x1="132.7432" y1="40.9821" x2="132.7432" y2="46.25">
				<stop  offset="0" style="stop-color:#4D4D4D"/>
				<stop  offset="0.227" style="stop-color:#0F0F0F"/>
				<stop  offset="1" style="stop-color:#808080"/>
			</linearGradient>
			<polygon fill="url(#SVGID_51_)" points="130.6,43.1 134.5,46.9 134.9,46.9 131,43.1 			"/>
			<linearGradient id="SVGID_52_" gradientUnits="userSpaceOnUse" x1="133.7656" y1="40.9821" x2="133.7656" y2="46.25">
				<stop  offset="0" style="stop-color:#4D4D4D"/>
				<stop  offset="0.227" style="stop-color:#0F0F0F"/>
				<stop  offset="1" style="stop-color:#808080"/>
			</linearGradient>
			<polygon fill="url(#SVGID_52_)" points="131.7,43.1 135.5,46.9 135.9,46.9 132,43.1 			"/>
			<linearGradient id="SVGID_53_" gradientUnits="userSpaceOnUse" x1="134.7881" y1="40.9821" x2="134.7881" y2="46.25">
				<stop  offset="0" style="stop-color:#4D4D4D"/>
				<stop  offset="0.227" style="stop-color:#0F0F0F"/>
				<stop  offset="1" style="stop-color:#808080"/>
			</linearGradient>
			<polygon fill="url(#SVGID_53_)" points="132.7,43.1 136.5,46.9 136.9,46.9 133.1,43.1 			"/>
			<linearGradient id="SVGID_54_" gradientUnits="userSpaceOnUse" x1="135.8105" y1="40.9821" x2="135.8105" y2="46.25">
				<stop  offset="0" style="stop-color:#4D4D4D"/>
				<stop  offset="0.227" style="stop-color:#0F0F0F"/>
				<stop  offset="1" style="stop-color:#808080"/>
			</linearGradient>
			<polygon fill="url(#SVGID_54_)" points="133.7,43.1 137.5,46.9 137.9,46.9 134.1,43.1 			"/>
			<linearGradient id="SVGID_55_" gradientUnits="userSpaceOnUse" x1="136.832" y1="40.9821" x2="136.832" y2="46.25">
				<stop  offset="0" style="stop-color:#4D4D4D"/>
				<stop  offset="0.227" style="stop-color:#0F0F0F"/>
				<stop  offset="1" style="stop-color:#808080"/>
			</linearGradient>
			<polygon fill="url(#SVGID_55_)" points="134.7,43.1 138.6,46.9 138.9,46.9 135.1,43.1 			"/>
			<linearGradient id="SVGID_56_" gradientUnits="userSpaceOnUse" x1="137.7685" y1="40.9823" x2="137.7685" y2="46.2498">
				<stop  offset="0" style="stop-color:#4D4D4D"/>
				<stop  offset="0.227" style="stop-color:#0F0F0F"/>
				<stop  offset="1" style="stop-color:#808080"/>
			</linearGradient>
			<path fill="url(#SVGID_56_)" d="M135.7,43.1l3.8,3.8c0.1,0,0.2-0.1,0.3-0.1l-3.7-3.7H135.7z"/>
			<linearGradient id="SVGID_57_" gradientUnits="userSpaceOnUse" x1="138.5732" y1="40.9823" x2="138.5732" y2="46.2498">
				<stop  offset="0" style="stop-color:#4D4D4D"/>
				<stop  offset="0.227" style="stop-color:#0F0F0F"/>
				<stop  offset="1" style="stop-color:#808080"/>
			</linearGradient>
			<path fill="url(#SVGID_57_)" d="M136.8,43.1l3.4,3.4c0.1-0.1,0.1-0.1,0.2-0.2l-3.2-3.2H136.8z"/>
			<linearGradient id="SVGID_58_" gradientUnits="userSpaceOnUse" x1="139.2793" y1="40.9823" x2="139.2793" y2="46.2498">
				<stop  offset="0" style="stop-color:#4D4D4D"/>
				<stop  offset="0.227" style="stop-color:#0F0F0F"/>
				<stop  offset="1" style="stop-color:#808080"/>
			</linearGradient>
			<path fill="url(#SVGID_58_)" d="M137.8,43.1l2.9,2.9c0-0.1,0.1-0.2,0.1-0.3l-2.6-2.6H137.8z"/>
			<linearGradient id="SVGID_59_" gradientUnits="userSpaceOnUse" x1="139.8466" y1="40.982" x2="139.8466" y2="46.2503">
				<stop  offset="0" style="stop-color:#4D4D4D"/>
				<stop  offset="0.227" style="stop-color:#0F0F0F"/>
				<stop  offset="1" style="stop-color:#808080"/>
			</linearGradient>
			<path fill="url(#SVGID_59_)" d="M138.8,43.1l2.1,2.1c0,0,0-0.1,0-0.1v-0.1c0-0.1,0-0.1,0-0.2l-1.7-1.7c-0.1,0-0.1,0-0.2,0H138.8z
				"/>
			<linearGradient id="SVGID_60_" gradientUnits="userSpaceOnUse" x1="103.5176" y1="40.9818" x2="103.5176" y2="46.2505">
				<stop  offset="0" style="stop-color:#4D4D4D"/>
				<stop  offset="0.227" style="stop-color:#0F0F0F"/>
				<stop  offset="1" style="stop-color:#808080"/>
			</linearGradient>
			<path fill="url(#SVGID_60_)" d="M104.3,43.1C104.3,43.1,104.2,43.1,104.3,43.1l-1.9,1.8c0,0,0,0,0,0.1V45c0,0.1,0,0.1,0,0.2
				l2.2-2.2H104.3z"/>
			<linearGradient id="SVGID_61_" gradientUnits="userSpaceOnUse" x1="104.0971" y1="40.982" x2="104.0971" y2="46.2502">
				<stop  offset="0" style="stop-color:#4D4D4D"/>
				<stop  offset="0.227" style="stop-color:#0F0F0F"/>
				<stop  offset="1" style="stop-color:#808080"/>
			</linearGradient>
			<path fill="url(#SVGID_61_)" d="M105.2,43.1l-2.7,2.7c0,0.1,0.1,0.2,0.1,0.3l2.9-2.9H105.2z"/>
			<linearGradient id="SVGID_62_" gradientUnits="userSpaceOnUse" x1="104.8125" y1="40.9821" x2="104.8125" y2="46.2501">
				<stop  offset="0" style="stop-color:#4D4D4D"/>
				<stop  offset="0.227" style="stop-color:#0F0F0F"/>
				<stop  offset="1" style="stop-color:#808080"/>
			</linearGradient>
			<path fill="url(#SVGID_62_)" d="M106.3,43.1l-3.3,3.3c0.1,0.1,0.1,0.1,0.2,0.2l3.5-3.5H106.3z"/>
			<linearGradient id="SVGID_63_" gradientUnits="userSpaceOnUse" x1="105.6274" y1="40.9821" x2="105.6274" y2="46.25">
				<stop  offset="0" style="stop-color:#4D4D4D"/>
				<stop  offset="0.227" style="stop-color:#0F0F0F"/>
				<stop  offset="1" style="stop-color:#808080"/>
			</linearGradient>
			<path fill="url(#SVGID_63_)" d="M107.3,43.1l-3.7,3.7c0.1,0,0.2,0.1,0.3,0.1l3.8-3.8H107.3z"/>
			<linearGradient id="SVGID_64_" gradientUnits="userSpaceOnUse" x1="106.5766" y1="40.9821" x2="106.5766" y2="46.25">
				<stop  offset="0" style="stop-color:#4D4D4D"/>
				<stop  offset="0.227" style="stop-color:#0F0F0F"/>
				<stop  offset="1" style="stop-color:#808080"/>
			</linearGradient>
			<polygon fill="url(#SVGID_64_)" points="108.3,43.1 104.5,46.9 104.9,46.9 108.7,43.1 			"/>
			<linearGradient id="SVGID_65_" gradientUnits="userSpaceOnUse" x1="107.6006" y1="40.9821" x2="107.6006" y2="46.25">
				<stop  offset="0" style="stop-color:#4D4D4D"/>
				<stop  offset="0.227" style="stop-color:#0F0F0F"/>
				<stop  offset="1" style="stop-color:#808080"/>
			</linearGradient>
			<polygon fill="url(#SVGID_65_)" points="109.3,43.1 105.5,46.9 105.9,46.9 109.7,43.1 			"/>
			<linearGradient id="SVGID_66_" gradientUnits="userSpaceOnUse" x1="108.6216" y1="40.9821" x2="108.6216" y2="46.25">
				<stop  offset="0" style="stop-color:#4D4D4D"/>
				<stop  offset="0.227" style="stop-color:#0F0F0F"/>
				<stop  offset="1" style="stop-color:#808080"/>
			</linearGradient>
			<polygon fill="url(#SVGID_66_)" points="110.3,43.1 106.5,46.9 106.9,46.9 110.7,43.1 			"/>
			<linearGradient id="SVGID_67_" gradientUnits="userSpaceOnUse" x1="109.643" y1="40.9821" x2="109.643" y2="46.25">
				<stop  offset="0" style="stop-color:#4D4D4D"/>
				<stop  offset="0.227" style="stop-color:#0F0F0F"/>
				<stop  offset="1" style="stop-color:#808080"/>
			</linearGradient>
			<polygon fill="url(#SVGID_67_)" points="111.4,43.1 107.5,46.9 107.9,46.9 111.8,43.1 			"/>
			<linearGradient id="SVGID_68_" gradientUnits="userSpaceOnUse" x1="110.6665" y1="40.9821" x2="110.6665" y2="46.25">
				<stop  offset="0" style="stop-color:#4D4D4D"/>
				<stop  offset="0.227" style="stop-color:#0F0F0F"/>
				<stop  offset="1" style="stop-color:#808080"/>
			</linearGradient>
			<polygon fill="url(#SVGID_68_)" points="112.4,43.1 108.6,46.9 108.9,46.9 112.8,43.1 			"/>
			<linearGradient id="SVGID_69_" gradientUnits="userSpaceOnUse" x1="111.688" y1="40.9821" x2="111.688" y2="46.25">
				<stop  offset="0" style="stop-color:#4D4D4D"/>
				<stop  offset="0.227" style="stop-color:#0F0F0F"/>
				<stop  offset="1" style="stop-color:#808080"/>
			</linearGradient>
			<polygon fill="url(#SVGID_69_)" points="113.4,43.1 109.6,46.9 110,46.9 113.8,43.1 			"/>
			<linearGradient id="SVGID_70_" gradientUnits="userSpaceOnUse" x1="112.7104" y1="40.9821" x2="112.7104" y2="46.25">
				<stop  offset="0" style="stop-color:#4D4D4D"/>
				<stop  offset="0.227" style="stop-color:#0F0F0F"/>
				<stop  offset="1" style="stop-color:#808080"/>
			</linearGradient>
			<polygon fill="url(#SVGID_70_)" points="114.4,43.1 110.6,46.9 111,46.9 114.8,43.1 			"/>
			<linearGradient id="SVGID_71_" gradientUnits="userSpaceOnUse" x1="113.7314" y1="40.9821" x2="113.7314" y2="46.25">
				<stop  offset="0" style="stop-color:#4D4D4D"/>
				<stop  offset="0.227" style="stop-color:#0F0F0F"/>
				<stop  offset="1" style="stop-color:#808080"/>
			</linearGradient>
			<polygon fill="url(#SVGID_71_)" points="115.5,43.1 111.6,46.9 112,46.9 115.8,43.1 			"/>
			<linearGradient id="SVGID_72_" gradientUnits="userSpaceOnUse" x1="114.7534" y1="40.9821" x2="114.7534" y2="46.25">
				<stop  offset="0" style="stop-color:#4D4D4D"/>
				<stop  offset="0.227" style="stop-color:#0F0F0F"/>
				<stop  offset="1" style="stop-color:#808080"/>
			</linearGradient>
			<polygon fill="url(#SVGID_72_)" points="116.5,43.1 112.6,46.9 113,46.9 116.9,43.1 			"/>
			<linearGradient id="SVGID_73_" gradientUnits="userSpaceOnUse" x1="115.7759" y1="40.9821" x2="115.7759" y2="46.25">
				<stop  offset="0" style="stop-color:#4D4D4D"/>
				<stop  offset="0.227" style="stop-color:#0F0F0F"/>
				<stop  offset="1" style="stop-color:#808080"/>
			</linearGradient>
			<polygon fill="url(#SVGID_73_)" points="117.5,43.1 113.7,46.9 114,46.9 117.9,43.1 			"/>
			<linearGradient id="SVGID_74_" gradientUnits="userSpaceOnUse" x1="116.7974" y1="40.9821" x2="116.7974" y2="46.25">
				<stop  offset="0" style="stop-color:#4D4D4D"/>
				<stop  offset="0.227" style="stop-color:#0F0F0F"/>
				<stop  offset="1" style="stop-color:#808080"/>
			</linearGradient>
			<polygon fill="url(#SVGID_74_)" points="118.5,43.1 114.7,46.9 115.1,46.9 118.9,43.1 			"/>
			<linearGradient id="SVGID_75_" gradientUnits="userSpaceOnUse" x1="117.8198" y1="40.9821" x2="117.8198" y2="46.25">
				<stop  offset="0" style="stop-color:#4D4D4D"/>
				<stop  offset="0.227" style="stop-color:#0F0F0F"/>
				<stop  offset="1" style="stop-color:#808080"/>
			</linearGradient>
			<polygon fill="url(#SVGID_75_)" points="119.5,43.1 115.7,46.9 116.1,46.9 119.9,43.1 			"/>
			<linearGradient id="SVGID_76_" gradientUnits="userSpaceOnUse" x1="118.8413" y1="40.9821" x2="118.8413" y2="46.25">
				<stop  offset="0" style="stop-color:#4D4D4D"/>
				<stop  offset="0.227" style="stop-color:#0F0F0F"/>
				<stop  offset="1" style="stop-color:#808080"/>
			</linearGradient>
			<polygon fill="url(#SVGID_76_)" points="120.6,43.1 116.7,46.9 117.1,46.9 121,43.1 			"/>
			<linearGradient id="SVGID_77_" gradientUnits="userSpaceOnUse" x1="119.864" y1="40.9821" x2="119.864" y2="46.25">
				<stop  offset="0" style="stop-color:#4D4D4D"/>
				<stop  offset="0.227" style="stop-color:#0F0F0F"/>
				<stop  offset="1" style="stop-color:#808080"/>
			</linearGradient>
			<polygon fill="url(#SVGID_77_)" points="121.6,43.1 117.8,46.9 118.1,46.9 122,43.1 			"/>
			<linearGradient id="SVGID_78_" gradientUnits="userSpaceOnUse" x1="120.8859" y1="40.9821" x2="120.8859" y2="46.25">
				<stop  offset="0" style="stop-color:#4D4D4D"/>
				<stop  offset="0.227" style="stop-color:#0F0F0F"/>
				<stop  offset="1" style="stop-color:#808080"/>
			</linearGradient>
			<polygon fill="url(#SVGID_78_)" points="122.6,43.1 118.8,46.9 119.2,46.9 123,43.1 			"/>
			<linearGradient id="SVGID_79_" gradientUnits="userSpaceOnUse" x1="121.9089" y1="40.9821" x2="121.9089" y2="46.25">
				<stop  offset="0" style="stop-color:#4D4D4D"/>
				<stop  offset="0.227" style="stop-color:#0F0F0F"/>
				<stop  offset="1" style="stop-color:#808080"/>
			</linearGradient>
			<polygon fill="url(#SVGID_79_)" points="123.6,43.1 119.8,46.9 120.2,46.9 124,43.1 			"/>
			<linearGradient id="SVGID_80_" gradientUnits="userSpaceOnUse" x1="122.9309" y1="40.9821" x2="122.9309" y2="46.25">
				<stop  offset="0" style="stop-color:#4D4D4D"/>
				<stop  offset="0.227" style="stop-color:#0F0F0F"/>
				<stop  offset="1" style="stop-color:#808080"/>
			</linearGradient>
			<polygon fill="url(#SVGID_80_)" points="124.7,43.1 120.8,46.9 121.2,46.9 125,43.1 			"/>
			<linearGradient id="SVGID_81_" gradientUnits="userSpaceOnUse" x1="123.9531" y1="40.9821" x2="123.9531" y2="46.25">
				<stop  offset="0" style="stop-color:#4D4D4D"/>
				<stop  offset="0.227" style="stop-color:#0F0F0F"/>
				<stop  offset="1" style="stop-color:#808080"/>
			</linearGradient>
			<polygon fill="url(#SVGID_81_)" points="125.7,43.1 121.8,46.9 122.2,46.9 126.1,43.1 			"/>
			<linearGradient id="SVGID_82_" gradientUnits="userSpaceOnUse" x1="124.9756" y1="40.9821" x2="124.9756" y2="46.25">
				<stop  offset="0" style="stop-color:#4D4D4D"/>
				<stop  offset="0.227" style="stop-color:#0F0F0F"/>
				<stop  offset="1" style="stop-color:#808080"/>
			</linearGradient>
			<polygon fill="url(#SVGID_82_)" points="126.7,43.1 122.9,46.9 123.3,46.9 127.1,43.1 			"/>
			<linearGradient id="SVGID_83_" gradientUnits="userSpaceOnUse" x1="125.998" y1="40.9821" x2="125.998" y2="46.25">
				<stop  offset="0" style="stop-color:#4D4D4D"/>
				<stop  offset="0.227" style="stop-color:#0F0F0F"/>
				<stop  offset="1" style="stop-color:#808080"/>
			</linearGradient>
			<polygon fill="url(#SVGID_83_)" points="127.7,43.1 123.9,46.9 124.3,46.9 128.1,43.1 			"/>
			<linearGradient id="SVGID_84_" gradientUnits="userSpaceOnUse" x1="127.0185" y1="40.9821" x2="127.0185" y2="46.25">
				<stop  offset="0" style="stop-color:#4D4D4D"/>
				<stop  offset="0.227" style="stop-color:#0F0F0F"/>
				<stop  offset="1" style="stop-color:#808080"/>
			</linearGradient>
			<polygon fill="url(#SVGID_84_)" points="128.7,43.1 124.9,46.9 125.3,46.9 129.1,43.1 			"/>
			<linearGradient id="SVGID_85_" gradientUnits="userSpaceOnUse" x1="128.041" y1="40.9821" x2="128.041" y2="46.25">
				<stop  offset="0" style="stop-color:#4D4D4D"/>
				<stop  offset="0.227" style="stop-color:#0F0F0F"/>
				<stop  offset="1" style="stop-color:#808080"/>
			</linearGradient>
			<polygon fill="url(#SVGID_85_)" points="129.8,43.1 125.9,46.9 126.3,46.9 130.2,43.1 			"/>
			<linearGradient id="SVGID_86_" gradientUnits="userSpaceOnUse" x1="129.0625" y1="40.9821" x2="129.0625" y2="46.25">
				<stop  offset="0" style="stop-color:#4D4D4D"/>
				<stop  offset="0.227" style="stop-color:#0F0F0F"/>
				<stop  offset="1" style="stop-color:#808080"/>
			</linearGradient>
			<polygon fill="url(#SVGID_86_)" points="130.8,43.1 127,46.9 127.3,46.9 131.2,43.1 			"/>
			<linearGradient id="SVGID_87_" gradientUnits="userSpaceOnUse" x1="130.085" y1="40.9821" x2="130.085" y2="46.25">
				<stop  offset="0" style="stop-color:#4D4D4D"/>
				<stop  offset="0.227" style="stop-color:#0F0F0F"/>
				<stop  offset="1" style="stop-color:#808080"/>
			</linearGradient>
			<polygon fill="url(#SVGID_87_)" points="131.8,43.1 128,46.9 128.4,46.9 132.2,43.1 			"/>
			<linearGradient id="SVGID_88_" gradientUnits="userSpaceOnUse" x1="131.1064" y1="40.9821" x2="131.1064" y2="46.25">
				<stop  offset="0" style="stop-color:#4D4D4D"/>
				<stop  offset="0.227" style="stop-color:#0F0F0F"/>
				<stop  offset="1" style="stop-color:#808080"/>
			</linearGradient>
			<polygon fill="url(#SVGID_88_)" points="132.8,43.1 129,46.9 129.4,46.9 133.2,43.1 			"/>
			<linearGradient id="SVGID_89_" gradientUnits="userSpaceOnUse" x1="132.1289" y1="40.9821" x2="132.1289" y2="46.25">
				<stop  offset="0" style="stop-color:#4D4D4D"/>
				<stop  offset="0.227" style="stop-color:#0F0F0F"/>
				<stop  offset="1" style="stop-color:#808080"/>
			</linearGradient>
			<polygon fill="url(#SVGID_89_)" points="133.9,43.1 130,46.9 130.4,46.9 134.2,43.1 			"/>
			<linearGradient id="SVGID_90_" gradientUnits="userSpaceOnUse" x1="133.1533" y1="40.9821" x2="133.1533" y2="46.25">
				<stop  offset="0" style="stop-color:#4D4D4D"/>
				<stop  offset="0.227" style="stop-color:#0F0F0F"/>
				<stop  offset="1" style="stop-color:#808080"/>
			</linearGradient>
			<polygon fill="url(#SVGID_90_)" points="134.9,43.1 131,46.9 131.4,46.9 135.3,43.1 			"/>
			<linearGradient id="SVGID_91_" gradientUnits="userSpaceOnUse" x1="134.1719" y1="40.9821" x2="134.1719" y2="46.25">
				<stop  offset="0" style="stop-color:#4D4D4D"/>
				<stop  offset="0.227" style="stop-color:#0F0F0F"/>
				<stop  offset="1" style="stop-color:#808080"/>
			</linearGradient>
			<polygon fill="url(#SVGID_91_)" points="135.9,43.1 132.1,46.9 132.4,46.9 136.3,43.1 			"/>
			<linearGradient id="SVGID_92_" gradientUnits="userSpaceOnUse" x1="135.1943" y1="40.9821" x2="135.1943" y2="46.25">
				<stop  offset="0" style="stop-color:#4D4D4D"/>
				<stop  offset="0.227" style="stop-color:#0F0F0F"/>
				<stop  offset="1" style="stop-color:#808080"/>
			</linearGradient>
			<polygon fill="url(#SVGID_92_)" points="136.9,43.1 133.1,46.9 133.5,46.9 137.3,43.1 			"/>
			<linearGradient id="SVGID_93_" gradientUnits="userSpaceOnUse" x1="136.2178" y1="40.9821" x2="136.2178" y2="46.25">
				<stop  offset="0" style="stop-color:#4D4D4D"/>
				<stop  offset="0.227" style="stop-color:#0F0F0F"/>
				<stop  offset="1" style="stop-color:#808080"/>
			</linearGradient>
			<polygon fill="url(#SVGID_93_)" points="137.9,43.1 134.1,46.9 134.5,46.9 138.3,43.1 			"/>
			<linearGradient id="SVGID_94_" gradientUnits="userSpaceOnUse" x1="137.2276" y1="40.9821" x2="137.2276" y2="46.25">
				<stop  offset="0" style="stop-color:#4D4D4D"/>
				<stop  offset="0.227" style="stop-color:#0F0F0F"/>
				<stop  offset="1" style="stop-color:#808080"/>
			</linearGradient>
			<path fill="url(#SVGID_94_)" d="M139,43.1l-3.8,3.8h0.4l3.8-3.8C139.2,43.1,139.1,43.1,139,43.1L139,43.1z"/>
			<linearGradient id="SVGID_95_" gradientUnits="userSpaceOnUse" x1="138.1025" y1="40.9822" x2="138.1025" y2="46.25">
				<stop  offset="0" style="stop-color:#4D4D4D"/>
				<stop  offset="0.227" style="stop-color:#0F0F0F"/>
				<stop  offset="1" style="stop-color:#808080"/>
			</linearGradient>
			<path fill="url(#SVGID_95_)" d="M136.2,46.9h0.4l3.5-3.5c-0.1-0.1-0.2-0.1-0.2-0.1L136.2,46.9z"/>
			<linearGradient id="SVGID_96_" gradientUnits="userSpaceOnUse" x1="138.8691" y1="40.9814" x2="138.8691" y2="46.2499">
				<stop  offset="0" style="stop-color:#4D4D4D"/>
				<stop  offset="0.227" style="stop-color:#0F0F0F"/>
				<stop  offset="1" style="stop-color:#808080"/>
			</linearGradient>
			<path fill="url(#SVGID_96_)" d="M137.2,46.9h0.4l3-3c0-0.1-0.1-0.1-0.2-0.2L137.2,46.9z"/>
			<linearGradient id="SVGID_97_" gradientUnits="userSpaceOnUse" x1="139.5293" y1="40.9827" x2="139.5293" y2="46.2501">
				<stop  offset="0" style="stop-color:#4D4D4D"/>
				<stop  offset="0.227" style="stop-color:#0F0F0F"/>
				<stop  offset="1" style="stop-color:#808080"/>
			</linearGradient>
			<path fill="url(#SVGID_97_)" d="M138.2,46.9h0.4l2.3-2.3c0-0.1,0-0.2-0.1-0.3L138.2,46.9z"/>
			<linearGradient id="SVGID_98_" gradientUnits="userSpaceOnUse" x1="140.0518" y1="40.9817" x2="140.0518" y2="46.2498">
				<stop  offset="0" style="stop-color:#4D4D4D"/>
				<stop  offset="0.227" style="stop-color:#0F0F0F"/>
				<stop  offset="1" style="stop-color:#808080"/>
			</linearGradient>
			<path fill="url(#SVGID_98_)" d="M139.2,46.9c0.2,0,0.4-0.1,0.5-0.1l1-1c0.1-0.2,0.1-0.3,0.1-0.5L139.2,46.9z"/>
		</g>
	</g>
</g>
</svg>
